<svg version="1.1" xmlns="http://www.w3.org/2000/svg" xmlns:xlink="http://www.w3.org/1999/xlink" x="0px" y="0px"
	 viewBox="0 0 412 300" style="enable-background:new 0 0 412 300;" xml:space="preserve">
<path class="st0" d="M31.2,164.1c0-19.9,14.7-36.7,35.2-42.7c-0.4-2.5-0.6-5.1-0.6-7.7c0-30.1,24.4-54.5,54.5-54.5
	c7.6,0,14.8,1.5,21.3,4.3c9.1-21.2,32.4-36.2,59.7-36.2c22.3,0,41.9,10,53.3,25.2c6.5-2.5,13.6-3.9,21.1-3.9
	c29.3,0,53.5,21.6,57.8,49.7c2.4-0.3,4.8-0.5,7.3-0.5c28.6,0,51.8,20.2,51.8,45.2c0,18.4-12.6,34.2-30.7,41.2
	c0.1,1.1,0.2,2.2,0.2,3.3c0,26.8-21.7,48.5-48.5,48.5c-9.9,0-19-3-26.7-8c-10.2,18.9-32.2,31.9-57.7,31.9
	c-20.4,0-38.6-8.4-50.2-21.4c-10.7,12.3-26.5,20.1-44.1,20.1c-29.2,0-53.4-21.5-57.8-49.5C51.3,206.3,31.2,187.2,31.2,164.1z"/>
</svg>
